<svg width="11" height="10" viewBox="0 0 11 10" fill="none" xmlns="http://www.w3.org/2000/svg">
<path d="M8.5 8C7.945 8 7.5 8.445 7.5 9C7.5 9.26522 7.60536 9.51957 7.79289 9.70711C7.98043 9.89464 8.23478 10 8.5 10C8.76522 10 9.01957 9.89464 9.20711 9.70711C9.39464 9.51957 9.5 9.26522 9.5 9C9.5 8.73478 9.39464 8.48043 9.20711 8.29289C9.01957 8.10536 8.76522 8 8.5 8ZM0.5 0V1H1.5L3.3 4.795L2.62 6.02C2.545 6.16 2.5 6.325 2.5 6.5C2.5 6.76522 2.60536 7.01957 2.79289 7.20711C2.98043 7.39464 3.23478 7.5 3.5 7.5H9.5V6.5H3.71C3.67685 6.5 3.64505 6.48683 3.62161 6.46339C3.59817 6.43995 3.585 6.40815 3.585 6.375C3.585 6.35 3.59 6.33 3.6 6.315L4.05 5.5H7.775C8.15 5.5 8.48 5.29 8.65 4.985L10.44 1.75C10.475 1.67 10.5 1.585 10.5 1.5C10.5 1.36739 10.4473 1.24021 10.3536 1.14645C10.2598 1.05268 10.1326 1 10 1H2.605L2.135 0H0.5ZM3.5 8C2.945 8 2.5 8.445 2.5 9C2.5 9.26522 2.60536 9.51957 2.79289 9.70711C2.98043 9.89464 3.23478 10 3.5 10C3.76522 10 4.01957 9.89464 4.20711 9.70711C4.39464 9.51957 4.5 9.26522 4.5 9C4.5 8.73478 4.39464 8.48043 4.20711 8.29289C4.01957 8.10536 3.76522 8 3.5 8Z" fill="black"/>
</svg>
