<svg width="26" height="26" viewBox="0 0 26 26" fill="none" xmlns="http://www.w3.org/2000/svg">
<path d="M12.4131 15.495C11.4506 15.3938 10.5844 15.155 9.84186 14.57C9.74936 14.4975 9.65436 14.4275 9.57061 14.345C9.24561 14.0325 9.21186 13.6713 9.47061 13.3013C9.68936 12.9838 10.0581 12.8988 10.4431 13.08C10.5173 13.1166 10.5884 13.1592 10.6556 13.2075C12.0394 14.165 13.9406 14.1913 15.3306 13.25C15.4642 13.141 15.6186 13.0602 15.7844 13.0125C15.9381 12.9675 16.1024 12.9756 16.251 13.0354C16.3995 13.0953 16.5236 13.2035 16.6031 13.3425C16.8069 13.6763 16.8031 14.0013 16.5531 14.26C16.1697 14.65 15.7061 14.952 15.1944 15.145C14.7094 15.335 14.1769 15.43 13.6506 15.4938C13.7306 15.5813 13.7681 15.6238 13.8181 15.6738C14.5319 16.3963 15.2494 17.1163 15.9619 17.8413C16.2044 18.0888 16.2556 18.395 16.1219 18.6825C15.9756 18.995 15.6481 19.2025 15.3281 19.18C15.1339 19.1604 14.9543 19.068 14.8256 18.9213C14.2869 18.375 13.7381 17.8388 13.2094 17.2825C13.0556 17.12 12.9806 17.1513 12.8456 17.2913C12.3031 17.8538 11.7519 18.4075 11.1969 18.9588C10.9481 19.205 10.6519 19.25 10.3631 19.1088C10.2152 19.039 10.0905 18.9281 10.0041 18.7893C9.91758 18.6505 9.87299 18.4898 9.87561 18.3263C9.8918 18.1239 9.98591 17.9356 10.1381 17.8013L12.2556 15.665C12.3019 15.6175 12.3456 15.5675 12.4131 15.495Z" fill="black"/>
<path d="M12.985 13C12.1594 12.9927 11.37 12.6594 10.7891 12.0726C10.2082 11.4858 9.88277 10.6932 9.88379 9.8675C9.88776 9.03823 10.2204 8.24437 10.8088 7.65997C11.3972 7.07557 12.1933 6.74833 13.0225 6.75C13.435 6.75228 13.843 6.83609 14.2229 6.99662C14.6029 7.15715 14.9473 7.39122 15.2365 7.68537C15.5256 7.97952 15.7538 8.32794 15.9078 8.71058C16.0618 9.09323 16.1386 9.50255 16.1338 9.915C16.125 11.6225 14.7125 13.0062 12.985 13ZM14.54 9.8725C14.5405 9.67161 14.5013 9.47261 14.4245 9.28697C14.3478 9.10133 14.235 8.93271 14.0928 8.79084C13.9506 8.64897 13.7817 8.53664 13.5958 8.46034C13.41 8.38403 13.2109 8.34526 13.01 8.34625C12.8076 8.34524 12.6069 8.38456 12.4198 8.46192C12.2327 8.53929 12.0628 8.65314 11.9202 8.79684C11.7775 8.94054 11.6649 9.11122 11.5889 9.2989C11.5129 9.48659 11.475 9.68753 11.4775 9.89C11.4785 10.0909 11.5192 10.2896 11.5974 10.4747C11.6755 10.6598 11.7895 10.8276 11.9327 10.9684C12.076 11.1092 12.2457 11.2203 12.4321 11.2952C12.6185 11.3702 12.8179 11.4075 13.0188 11.405C13.2196 11.4052 13.4184 11.3656 13.6038 11.2885C13.7891 11.2114 13.9574 11.0983 14.0988 10.9558C14.2403 10.8133 14.3521 10.6442 14.4278 10.4583C14.5036 10.2724 14.5417 10.0733 14.54 9.8725Z" fill="black"/>
<path d="M5.5 3C4.83696 3 4.20107 3.26339 3.73223 3.73223C3.26339 4.20107 3 4.83696 3 5.5V20.5C3 21.163 3.26339 21.7989 3.73223 22.2678C4.20107 22.7366 4.83696 23 5.5 23H20.5C21.163 23 21.7989 22.7366 22.2678 22.2678C22.7366 21.7989 23 21.163 23 20.5V5.5C23 4.83696 22.7366 4.20107 22.2678 3.73223C21.7989 3.26339 21.163 3 20.5 3H5.5ZM5.5 0.5H20.5C21.8261 0.5 23.0979 1.02678 24.0355 1.96447C24.9732 2.90215 25.5 4.17392 25.5 5.5V20.5C25.5 21.8261 24.9732 23.0979 24.0355 24.0355C23.0979 24.9732 21.8261 25.5 20.5 25.5H5.5C4.17392 25.5 2.90215 24.9732 1.96447 24.0355C1.02678 23.0979 0.5 21.8261 0.5 20.5V5.5C0.5 4.17392 1.02678 2.90215 1.96447 1.96447C2.90215 1.02678 4.17392 0.5 5.5 0.5Z" fill="black"/>
</svg>
