<svg width="28" height="28" viewBox="0 0 28 28" fill="none" xmlns="http://www.w3.org/2000/svg">
<path d="M18.68 15.9125C18.3147 15.5173 17.9044 15.1661 17.4575 14.8663C19.2596 13.4731 20.5227 11.4979 21.0312 9.2775C21.0695 9.11682 21.0754 8.95017 21.0488 8.78717C21.0223 8.62416 20.9636 8.46805 20.8764 8.32783C20.7891 8.18762 20.6749 8.06609 20.5404 7.97027C20.4059 7.87445 20.2537 7.80623 20.0927 7.76957C19.9316 7.7329 19.7649 7.72851 19.6022 7.75665C19.4394 7.78479 19.2839 7.8449 19.1445 7.9335C19.0051 8.02211 18.8847 8.13746 18.7902 8.27288C18.6956 8.40831 18.6289 8.56112 18.5938 8.7225C18.3572 9.76131 17.8969 10.736 17.2449 11.5786C16.5929 12.4213 15.7649 13.1115 14.8187 13.6012V9.0025C14.8109 8.91068 14.7924 8.82008 14.7638 8.7325C14.7553 8.66013 14.7406 8.58862 14.72 8.51875C14.6667 8.40457 14.5963 8.29919 14.5113 8.20625C14.4888 8.18125 14.4775 8.14625 14.4537 8.12125C14.3622 8.03675 14.2586 7.96639 14.1462 7.9125C14.1137 7.895 14.09 7.86625 14.0562 7.8525C13.9607 7.8205 13.8617 7.79994 13.7612 7.79125C13.6991 7.77315 13.6355 7.76019 13.5712 7.7525L12.7537 7.75H12.75C12.4571 7.74793 12.173 7.84926 11.9475 8.03616C11.722 8.22305 11.5697 8.48352 11.5174 8.77168C11.4651 9.05983 11.5162 9.3572 11.6617 9.61139C11.8071 9.86559 12.0376 10.0603 12.3125 10.1613V16.2738C10.3316 14.2177 9.01989 11.6099 8.55 8.79375C8.49464 8.46687 8.31169 8.17537 8.0414 7.98338C7.77111 7.79139 7.43563 7.71464 7.10875 7.77C6.78187 7.82536 6.49037 8.00831 6.29838 8.2786C6.10639 8.54889 6.02964 8.88437 6.085 9.21125C6.81542 13.5647 9.24296 17.4505 12.835 20.0163C12.8863 20.0468 12.9398 20.0735 12.995 20.0963C13.0385 20.1216 13.0836 20.1442 13.13 20.1637C13.2693 20.2195 13.4175 20.2496 13.5675 20.2525C13.7515 20.2502 13.9326 20.2066 14.0975 20.125C14.11 20.1187 14.1238 20.1225 14.1363 20.1162C14.2467 20.0584 14.3479 19.9842 14.4362 19.8962C14.455 19.8787 14.4663 19.8588 14.4838 19.84C14.5644 19.7515 14.6318 19.6517 14.6838 19.5437C14.701 19.5083 14.7164 19.472 14.73 19.435C14.7849 19.2973 14.8145 19.1508 14.8175 19.0025V16.345C15.5926 16.5722 16.291 17.0065 16.8375 17.6012L18.8962 19.8475C19.1204 20.0918 19.4323 20.2371 19.7636 20.2514C20.0948 20.2657 20.4182 20.1479 20.6625 19.9237C20.9068 19.6996 21.0521 19.3877 21.0664 19.0564C21.0807 18.7252 20.9629 18.4018 20.7388 18.1575L18.68 15.9125ZM17.8412 0.25H10.1713C2.475 0.25 0.25 2.4725 0.25 10.1588V17.8288C0.25 25.525 2.4725 27.75 10.1588 27.75H17.8288C25.525 27.75 27.75 25.5275 27.75 17.8412V10.1713C27.75 2.475 25.5275 0.25 17.8412 0.25ZM25.25 17.8412C25.25 24.1413 24.14 25.25 17.8275 25.25H10.16C3.85875 25.25 2.75 24.14 2.75 17.8275V10.16C2.75 3.85875 3.86 2.75 10.1725 2.75H17.8412C24.1413 2.75 25.25 3.86 25.25 10.1725V17.8412Z" fill="black"/>
</svg>
